<svg id="Calque_1" data-name="Calque 1" xmlns="http://www.w3.org/2000/svg" viewBox="0 0 40 40"><defs><style>.cls-1{fill:red;fill-rule:evenodd;}.cls-2{fill:#fff;}</style></defs><title>bar</title><rect width="40" height="40"/><path class="cls-1" d="M27.36,9.86c0.73,5.4-5,8-10.55,6.68a5.56,5.56,0,0,1-3.87-7.26c4.94-1.7,9.11,1.74,14.41.58" transform="translate(-0.04 0.1)"/><path class="cls-2" d="M28.76,10.44a24.52,24.52,0,0,0-2.25-8.16,1.08,1.08,0,0,0-.94-0.19c0.71,2.65,2.31,5.52,2.35,8.54,0.06,4.79-3.51,6.94-8,7.14-4.49-.2-8.06-2.35-8-7.14,0-3,1.64-5.88,2.35-8.54a1.08,1.08,0,0,0-.94.19,24.52,24.52,0,0,0-2.25,8.16,12,12,0,0,0,0,2.06c0.49,4.39,5,4.82,7.13,7.5,1.27,1.6,1.34,13,.75,14.73-0.45,1.37-2.3,1.76-3.85,2-0.56.08-1.49-.1-1.78,0.56a35.26,35.26,0,0,0,6.59.44,35.26,35.26,0,0,0,6.59-.44c-0.3-.66-1.22-0.49-1.78-0.56-1.55-.21-3.39-0.6-3.85-2C20.3,33,20.36,21.6,21.63,20c2.14-2.68,6.64-3.11,7.13-7.5a12,12,0,0,0,0-2.06" transform="translate(-0.04 0.1)"/></svg>