<svg id="Calque_1" data-name="Calque 1" xmlns="http://www.w3.org/2000/svg" viewBox="0 0 40 40"><defs><style>.cls-1{fill:#6f0;}</style></defs><title>cinema</title><path class="cls-1" d="M5.46,14.93A2.7,2.7,0,0,1,2.73,17.6a2.67,2.67,0,1,1,0-5.34,2.7,2.7,0,0,1,2.73,2.67h0Z"/><polygon class="cls-1" points="8.51 15.09 4.82 21 13.53 20.99 17.34 15.2 8.51 15.09 8.51 15.09"/><polygon class="cls-1" points="22.7 15.09 19 21 27.71 20.99 31.53 15.2 22.7 15.09 22.7 15.09"/><polygon class="cls-1" points="40 15.1 39.96 21 33.08 21.03 37.12 15.09 40 15.1 40 15.1"/><polygon class="cls-1" points="25.23 3.02 30.13 8.03 21.62 9.84 16.62 4.98 25.23 3.02 25.23 3.02"/><polygon class="cls-1" points="11.17 5.93 16.33 10.68 7.93 12.91 2.68 8.31 11.17 5.93 11.17 5.93"/><polygon class="cls-1" points="38.31 5.72 36.8 0 30.12 1.62 35.52 6.41 38.31 5.72 38.31 5.72"/><path class="cls-1" d="M33.94,35.92H8V27.44H33.94v8.48h0Zm3.75-12.77H4.39c-2.09.26-2.14,0.94-2.14,2.09V37.91A2.12,2.12,0,0,0,4.39,40h33.3a2.12,2.12,0,0,0,2.14-2.09V25.24c0-1.16.16-2-2.14-2.09h0Z"/></svg>