<svg id="Calque_1" data-name="Calque 1" xmlns="http://www.w3.org/2000/svg" viewBox="0 0 58 45.84"><defs><style>.cls-1{fill:#f5f5f5;}.cls-2{fill:#81c241;fill-rule:evenodd;}</style></defs><title>detente</title><rect class="cls-1" y="5.84" width="58" height="40"/><path class="cls-2" d="M13.29,33.09c0-1.33,1.82-3.63,2.54-4.62,0.53-.73.93-1.27,1.47-2.09,0.65-1,1-.83,1.53-1.81a45.29,45.29,0,0,1,2.5-4.38c1.09-1.38,1.08-3.72,2.44-4.5-1.31,3.8,2.72,8.45.7,13a3.32,3.32,0,0,1-2.12,1.84c-1.22.32-1.94,0.13-3.21,0.57a44.89,44.89,0,0,0-5.85,2h0Zm32.83,0c-0.93-.27-2-0.77-3-1.09s-1.9-.54-2.88-0.9c-2.47-.9-4.3,0-5.31-2.42-1.93-4.62,2.07-9,.72-12.93,1.5,0.68.64,1.76,2.53,4.53,0.95,1.39,1.51,3,2.5,4.38l3,3.89C44.17,29.18,46,32,46.12,33h0ZM23.78,9.93c-2.21.59-2.53,1.23-3.07,3.67-1.14,5.19-2.3,5.39-4.51,8.83-1.92,3-2.76,6.64-5.25,8.29-1.31.87-3.35,1.43-4.11,2.58-1.36,2,.23,2.55.76,4.39,0.19,0.67-.13.09,0.14,0.51l1.59-1.68c1,2.41,1.4,3.33,4.62,3.47a71.82,71.82,0,0,0,7.8-.42c5.36-.48,6.1.21,11.34-0.07,1.55-.08,2.23.38,3.69,0.48,0.21-.47-0.31.57,0.18-0.59a1.06,1.06,0,0,1,.36-0.64c4.53,0.62,10.27,1.68,12-1.95,0.91,0.49,1.38,1.41,2.4,1.31-1.86-3.45.2-3.28-.22-5-0.62-2.46-3.89-.38-6.38-6.74-0.77-2-.89-2.84-2.13-4.33-3.11-3.72-3.22-2.5-4.3-8.81-1.1-6.47-5.5-1.51-7.2-6a10.34,10.34,0,0,0,2-.77c0.86-.64.29-0.59,0.56-1.7,0.4-1.68,1.6-1.55,1.07-3.89a18.64,18.64,0,0,0-1-4.09c-1.19-2.32-4.48-3.6-6.69-1.8A6.12,6.12,0,0,0,25.1-2a8.4,8.4,0,0,0-.88,4.12c0.11,0.64.56,1.29,0.72,2,0.25,1.07-.07,1.23.2,2.28A11,11,0,0,0,27.73,7C27.22,8.73,25.78,9.4,23.78,9.93Z" transform="translate(0 5.84)"/></svg>