<svg id="Calque_1" data-name="Calque 1" xmlns="http://www.w3.org/2000/svg" viewBox="0 0 39.91 39.78"><defs><style>.cls-1{fill:#fc3;}</style></defs><title>été</title><g id="g3175"><path id="path3177" class="cls-1" d="M12.06,40a1.26,1.26,0,0,1-.82-0.72A3.16,3.16,0,0,1,11.07,38a26.19,26.19,0,0,1,1-2.68c0.53-1.33,1-2.52,1.08-2.64a2.67,2.67,0,0,1,.95-0.88,1.5,1.5,0,0,1,1-.11,1.77,1.77,0,0,1,.85,1.9c-0.06.38-2,5.13-2.16,5.43a3.07,3.07,0,0,1-.91.77,1.36,1.36,0,0,1-.82.12h0Zm15.53-.21a3.1,3.1,0,0,1-1-.77c-0.23-.3-2.26-5.05-2.33-5.45a2.17,2.17,0,0,1,.39-1.59c0.51-.6,1.64-0.36,2.27.48a29.73,29.73,0,0,1,1.25,2.75l1.08,2.53v0.46a1.6,1.6,0,0,1-.68,1.52,0.68,0.68,0,0,1-.52.14,1.87,1.87,0,0,1-.49-0.07h0Zm-8.42-8.26a11.58,11.58,0,0,1-6.89-3A11.85,11.85,0,0,1,8.8,22.66a11.12,11.12,0,0,1,3.1-10.56A11.56,11.56,0,0,1,19,8.7a11.64,11.64,0,0,1,11.17,6.47,10.43,10.43,0,0,1,1.18,4.94,10.65,10.65,0,0,1-1.07,4.68A11.87,11.87,0,0,1,21.4,31.4,15.67,15.67,0,0,1,19.17,31.48ZM1.25,29.3a1.35,1.35,0,0,1-1-.78,1.51,1.51,0,0,1,.14-1.07,2.51,2.51,0,0,1,.86-0.91l2.55-1.11c2.58-1.1,2.68-1.13,3.28-1a1.26,1.26,0,0,1,1.3,1.22A2,2,0,0,1,7.6,27q-0.22.17-2.71,1.23L2.41,29.34H2a2.45,2.45,0,0,1-.71-0.06h0ZM37.65,29l-2.6-1c-2.51-1-2.66-1.09-3-1.53a1.56,1.56,0,0,1-.41-1,0.83,0.83,0,0,1,.09-0.55,1.64,1.64,0,0,1,1.39-.72,2.21,2.21,0,0,1,.59,0c0.21,0.05,4.83,1.9,5.1,2a2.64,2.64,0,0,1,1,1.09,1.16,1.16,0,0,1-.56,1.54,2.48,2.48,0,0,1-1.59.12h0ZM6,16c-0.33-.11-4.74-1.9-4.94-2a2.62,2.62,0,0,1-1-1.1c-0.4-.9.36-1.75,1.56-1.74a2.46,2.46,0,0,1,.45,0c0.21,0,4.78,1.88,5.12,2.05a2.37,2.37,0,0,1,.88,1C8.59,15.19,8,16,6.72,16A1.67,1.67,0,0,1,6,16Zm26.56-.21c-1.17-.25-1.47-1.21-0.7-2.23,0.32-.42.48-0.51,3.11-1.63l2.49-1.07H38a1.63,1.63,0,0,1,1.27.39,1.39,1.39,0,0,1-.24,2.05,2.25,2.25,0,0,1-.46.36l-2.55,1.11c-2.68,1.14-2.76,1.17-3.46,1h0ZM14,8.52a2.39,2.39,0,0,1-1.11-.83C12.78,7.56,12.23,6.34,11.65,5c-1-2.37-1.06-2.49-1.08-2.83A1.49,1.49,0,0,1,11.76.36a2.25,2.25,0,0,1,1.48.84c0.25,0.34,2.27,5.05,2.33,5.46a1.8,1.8,0,0,1-.7,1.83A1.59,1.59,0,0,1,14,8.52Zm10.7-.13A1.44,1.44,0,0,1,24,7.59a2.38,2.38,0,0,1-.1-1.13c0.09-.42,2-5.15,2.17-5.39A2.8,2.8,0,0,1,27,.34a1.17,1.17,0,0,1,1.69.82,2.8,2.8,0,0,1,.08.73V2.34l-1,2.49c-0.55,1.37-1,2.57-1.1,2.67a2.73,2.73,0,0,1-.92.82,1.4,1.4,0,0,1-1.09.07h0Z" transform="translate(0.01 -0.2)"/></g></svg>