<svg id="Calque_1" data-name="Calque 1" xmlns="http://www.w3.org/2000/svg" viewBox="0 0 39.8 27.87"><defs><style>.cls-1{fill:#00c2f3;}.cls-2{fill:#fbad50;}.cls-3{fill:#39c0c3;}</style></defs><title>spectacle</title><path class="cls-1" d="M3.71,32.55H6.61s-0.37-6.7-.26-7.23a11.4,11.4,0,0,0,.58-2.72,9.81,9.81,0,0,1,.89-3.09c0.37-1.1-.11-1.1-0.37-0.58A19.2,19.2,0,0,1,6.61,21c-0.25.24-.25-0.24-0.14-1s0.35-2.2.11-2.51-0.88.21-.74,0.8-0.14,2.51-.45,2.51S5,19.7,5.1,18.87s0.25-2.06-.21-2.06-0.53,1-.53,2,0.11,1.89-.14,2-0.74-2.34-1-2.86-0.88-.31-0.63.52a13,13,0,0,1,.56,3.14c-0.07.56-.07,0.94-0.46,0.87s-0.95-1.19-2-1.36-0.77.49-.25,0.7A2.61,2.61,0,0,1,1.7,23.47a4.22,4.22,0,0,0,1.37,1.78c0.53,0.49,1.4,4.26.65,7.3h0Z" transform="translate(0 -4.68)"/><path class="cls-2" d="M14.68,32.55h3.26S17.1,18.9,17.28,17.92s1.75-2,2-2.72a3,3,0,0,1,1.23-1.71c0.49-.28.14-0.8-0.46-0.73a2.88,2.88,0,0,0-1.51,1.43c-0.14.35-1-1-.6-2.06s0.91-2.62.46-2.86-0.36.17-.67,0.91-0.55,2-.91,2.13,0.07-3.42-.21-3.67-1-.1-0.88,1.12a10.83,10.83,0,0,1,0,2.41c0,0.17-1.12.24-1.09,0.56a1.23,1.23,0,0,0-.74.77,3.2,3.2,0,0,0,.18,2,8,8,0,0,1,.49,1.71c0,0.45,0,4,.11,15.36" transform="translate(0 -4.68)"/><path class="cls-1" d="M23,32.55s0.18-18.08,0-18.85-1.58-1.5-1.54-2.51a3,3,0,0,1,.35-1.75,1.94,1.94,0,0,0,.63-0.7A32.61,32.61,0,0,1,22.22,5c0.17-.38.66-0.49,0.73,0s0.35,2.79.39,3,0.16,0.11.34,0.11a0.69,0.69,0,0,1,.64.21,2.22,2.22,0,0,0,.88.42,2.91,2.91,0,0,1,.88.52,5.38,5.38,0,0,1,0,2.79,3,3,0,0,0-.63,1.26c0,0.35.82,19.2,0.82,19.2H23" transform="translate(0 -4.68)"/><path class="cls-3" d="M29.11,32.55s0.67-15.19.42-15.85a3.67,3.67,0,0,1-.6-2.06,5.47,5.47,0,0,0-.35-2.09c-0.14-.77-0.95-1.85-0.74-2.2s0.49-.28.7,0.24a8.44,8.44,0,0,0,1,1.85c0.16,0.07-.3-2.3-0.26-3s0.56-.8.74-0.31,0.28,2.72.56,2.72,0.18-2,.14-2.79,0.91-1.32.88-.22-0.38,3.22,0,3.22,0.56-1.61.91-2.44,0.74-.77.81-0.21a9.26,9.26,0,0,1-.56,2.93c-0.25.49-.28,1.36,0.14,1.54s0.7-.7,1.37-1.12,1.3-.49,1.26.14-1.09.91-1.3,1.47a1.48,1.48,0,0,1-.81,1.15c-0.67.38-1.26,2.3-1.44,4.12s0.56,12.88.56,12.88H29.11Z" transform="translate(0 -4.68)"/><path class="cls-2" d="M35.94,32.55s0.46-10,.18-10.86-1.16-.91-1.47-1.57a2.85,2.85,0,0,1-.21-1.92,2.56,2.56,0,0,1,1-1.08c0.14-.21.71-1,0.76-1.19a0.37,0.37,0,0,1,.58,0,0.65,0.65,0,0,0,.42.21A0.86,0.86,0,0,1,37.83,16a0.49,0.49,0,0,1,.46.45,0.67,0.67,0,0,1,.74.1,0.87,0.87,0,0,1,.21.59,0.39,0.39,0,0,1,.46.21c0.25,0.31,0,.65,0,1.25A6.91,6.91,0,0,1,38.92,21c-0.35.7,0.14,11.56,0.14,11.56H35.94Z" transform="translate(0 -4.68)"/><path class="cls-3" d="M9.62,32.55s0.28-17.39,0-18.22-1.54-1.26-2-2A12.47,12.47,0,0,0,5.83,10c-0.56-.49,1-1.26,1.68,0s1.33,0.93,1.26-.68S8.36,6,8.78,5.88a1,1,0,0,1,.7,0,1.17,1.17,0,0,1,.78-0.77C10.81,5,10.88,6,10.88,6a0.41,0.41,0,0,1,.7-0.28C12.15,6.16,12,6.47,12,6.47s0.35-.17.7,0.38,0.07,3.63,0,4.75-0.56,2-.56,2.65,0.35,18.29.35,18.29H9.62Z" transform="translate(0 -4.68)"/></svg>