<svg id="Calque_1" data-name="Calque 1" xmlns="http://www.w3.org/2000/svg" viewBox="0 0 34.96 40"><defs><style>.cls-1{fill:#6cf;}</style></defs><title>hiver</title><path class="cls-1" d="M37.13,28.32l-4.32-2.5,3.65-2.17A1.18,1.18,0,0,0,36.89,22a1.17,1.17,0,0,0-1.63-.39L30.4,24.46,22.67,20l7.73-4.45,4.86,2.84a1,1,0,0,0,.56.18A1.32,1.32,0,0,0,36.89,18a1.19,1.19,0,0,0-.43-1.65l-3.65-2.17,4.32-2.5A1.22,1.22,0,0,0,37.56,10a1.2,1.2,0,0,0-1.65-.44l-4.34,2.52L31.51,7.75a1.2,1.2,0,0,0-1.19-1.21,1.22,1.22,0,0,0-1.19,1.21l0,5.73-7.68,4.45v-9l4.84-2.76a1.22,1.22,0,0,0,.48-1.65,1.17,1.17,0,0,0-1.63-.44L21.48,6.14V1.21A1.21,1.21,0,0,0,20.26,0a1.19,1.19,0,0,0-1.19,1.21v5L15.25,4.06a1.15,1.15,0,0,0-1.61.44,1.2,1.2,0,0,0,.46,1.65l5,2.8v8.94l-7.86-4.53,0-5.6a1.16,1.16,0,0,0-1.17-1.21h0A1.23,1.23,0,0,0,8.85,7.75L8.8,12,4.57,9.53A1.17,1.17,0,0,0,2.94,10a1.2,1.2,0,0,0,.43,1.65l4.28,2.47L3.92,16.32A1.16,1.16,0,0,0,3.51,18a1.12,1.12,0,0,0,1,.56,1.17,1.17,0,0,0,.63-0.18L10,15.47,17.88,20,10,24.5,5.16,21.61A1.18,1.18,0,0,0,3.51,22a1.22,1.22,0,0,0,.41,1.65l3.73,2.21-4.28,2.5A1.19,1.19,0,0,0,2.94,30a1.11,1.11,0,0,0,1,.61,2.18,2.18,0,0,0,.61-0.18L8.8,28l0,4.21A1.21,1.21,0,0,0,10,33.42h0a1.19,1.19,0,0,0,1.17-1.24l0-5.6,7.86-4.49V31l-5,2.8a1.19,1.19,0,0,0-.46,1.65,1.1,1.1,0,0,0,1,.61,1.16,1.16,0,0,0,.59-0.13l3.82-2.17v5.06A1.18,1.18,0,0,0,20.26,40a1.2,1.2,0,0,0,1.22-1.19v-5l3.69,2.08a1.24,1.24,0,0,0,1.63-.48,1.21,1.21,0,0,0-.48-1.65l-4.84-2.71V22l7.68,4.45,0,5.69a1.21,1.21,0,0,0,1.19,1.24,1.18,1.18,0,0,0,1.19-1.19l0.06-4.37,4.34,2.54a1.27,1.27,0,0,0,.63.13,1.12,1.12,0,0,0,1-.56A1.19,1.19,0,0,0,37.13,28.32Z" transform="translate(-2.77)"/></svg>