<svg id="Calque_1" data-name="Calque 1" xmlns="http://www.w3.org/2000/svg" viewBox="0 0 40 26.68"><defs><style>.cls-1{fill:#f0f;}</style></defs><title>hotel</title><path class="cls-1" d="M36.19,10.51V0.71A0.72,0.72,0,0,0,35.47,0H5.31a0.72,0.72,0,0,0-.72.72h0v9.85A4.3,4.3,0,0,0,2,11.83C0.36,13.54-.2,16.93.06,23.51a0.72,0.72,0,0,0,.72.65h2.4a0.71,0.71,0,0,0,0,.12V26a0.72,0.72,0,0,0,.72.72H6.6A0.72,0.72,0,0,0,7.32,26h0V24.16H32.9a0.71,0.71,0,0,0,0,.12V26a0.72,0.72,0,0,0,.72.72h2.7A0.72,0.72,0,0,0,37,26V24.16h2.27A0.72,0.72,0,0,0,40,23.48V14.9C40,11.5,38.54,10.69,36.19,10.51ZM34.75,1.43v9H32.37V5.36a0.72,0.72,0,0,0-.72-0.72H21.76a0.72,0.72,0,0,0-.72.72v5.13H19.26V5.36a0.72,0.72,0,0,0-.72-0.72H8.65a0.72,0.72,0,0,0-.72.72h0v5.13H6V1.43H34.75Zm-3.81,9.06H22.48V6.08h8.46v4.41Zm-13.11,0H9.36V6.08h8.46v4.41h0Zm-12,14.78H4.59v-1a0.72,0.72,0,0,0,0-.12H5.86v1.07Zm29.72,0H34.32v-1a0.72,0.72,0,0,0,0-.12H35.6v1.07Zm3-2.5H1.47c-0.19-5.61.29-8.61,1.53-10a3.24,3.24,0,0,1,2.51-.9h29c3.26,0,4,.28,4,3v7.85Z" transform="translate(0 0.01)"/></svg>