<svg id="Calque_1" data-name="Calque 1" xmlns="http://www.w3.org/2000/svg" viewBox="0 0 40 29.78"><defs><style>.cls-1{fill:aqua;}</style></defs><title>magasinage</title><path class="cls-1" d="M1.59,7.78h6.1l6.19,19.59a1.59,1.59,0,0,0,1.51,1.1H34.71a1.58,1.58,0,1,0,0-3.15H16.55L15.32,21.4H35.15a3.08,3.08,0,0,0,3-2.37l1.83-8.28a2.5,2.5,0,0,0-.48-2.12,2.53,2.53,0,0,0-2-.92H11l-0.62-2a1.59,1.59,0,0,0-1.51-1.1H1.59A1.58,1.58,0,1,0,1.59,7.78ZM35.05,18.25H14.42l-0.06,0h0l-0.7-2.1H35.51ZM12,10.86H36.67L36.2,13H12.62l-0.7-2.12H12Z" transform="translate(0 -4.63)"/><ellipse class="cls-1" cx="17.5" cy="27.54" rx="2.25" ry="2.24"/><ellipse class="cls-1" cx="31.44" cy="27.54" rx="2.25" ry="2.24"/></svg>