<?xml version="1.0" encoding="utf-8"?>
<!-- Generator: Adobe Illustrator 13.0.0, SVG Export Plug-In . SVG Version: 6.00 Build 14948)  -->
<!DOCTYPE svg PUBLIC "-//W3C//DTD SVG 1.1//EN" "http://www.w3.org/Graphics/SVG/1.1/DTD/svg11.dtd">
<svg version="1.1" id="Layer_1" xmlns="http://www.w3.org/2000/svg" xmlns:xlink="http://www.w3.org/1999/xlink" x="0px" y="0px"
	 width="24px" height="24px" viewBox="0 0 24 24" enable-background="new 0 0 24 24" xml:space="preserve">
<path fill="#7ABC08" stroke="#F7F7F7" stroke-width="0.5" d="M11.513,12.38c-2.117,0-3.835-1.729-3.835-3.862
	c0-2.135,1.718-3.863,3.835-3.863c2.117,0,3.834,1.729,3.834,3.863C15.348,10.65,13.63,12.38,11.513,12.38 M11.513,0
	C6.825,0,3.025,3.827,3.025,8.549c0,4.46,3.844,10.213,6.411,13.014c0.959,1.045,2.076,2.455,2.076,2.455s1.2-1.418,2.229-2.494
	C16.307,18.84,20,13.451,20,8.549C20,3.827,16.2,0,11.513,0"/>
</svg>
