<svg id="Calque_1" data-name="Calque 1" xmlns="http://www.w3.org/2000/svg" viewBox="0 0 18.31 55.13"><defs><style>.cls-1{fill:#fff;}</style></defs><title>resto</title><g id="layer1"><path id="path13953" class="cls-1" d="M4.43,38.49a1.25,1.25,0,1,1-2.46,0L2.46,15.83C2.46,14.35,0,14.35,0,12.38L0.24,0.55c0-.74.74-0.74,0.74,0V10.4c0,1,1,1,1,0V0.55c0-.74.74-0.74,0.74,0V11.14c0,1,1,1,1,0V0.55c0-.74.74-0.74,0.74,0V10.4c0,1,1,1,1,0V0.55c0-.74.74-0.74,0.74,0L6.4,12.38c0,2-2.46,2-2.46,3.45L4.43,38.49h0Z" transform="translate(0 15.17)"/><path id="path13955" class="cls-1" d="M12.9,2a1.25,1.25,0,1,0-2.46,0l0.49,23.2c0,1.48-1.48,2-2.46,3.94C7,32.12,8.72,37.74,9.95,39s2.22,1.23,3.45,0,3-6.9,1.48-9.85c-1-2-2.46-2.46-2.46-3.94L12.9,2h0Z" transform="translate(0 15.17)"/></g><text y="15.17"/></svg>