<svg id="Calque_1" data-name="Calque 1" xmlns="http://www.w3.org/2000/svg" viewBox="0 0 39.96 36.5"><title>restos</title><g id="layer1"><path id="path13953" d="M35.92,34.61c1.67,1.67-.42,3.75-2.08,2.08L15.09,17.11c-1.25-1.25-3.33.83-5-.83L0.3,6.06c-0.63-.63,0-1.25.62-0.62l8.33,8.33c0.83,0.83,1.67,0,.83-0.83L1.75,4.6C1.13,4,1.75,3.35,2.38,4l9,9c0.83,0.83,1.67,0,.83-0.83l-9-9c-0.63-.63,0-1.25.63-0.63l8.33,8.33c0.83,0.83,1.67,0,.83-0.83L4.67,1.69C4,1.06,4.67.44,5.3,1.06l10.21,9.79c1.67,1.67-.42,3.75.83,5L35.92,34.61h0Z" transform="translate(-0.04 -0.8)"/><path id="path13955" d="M5.47,34.49c-1.7,1.7.43,3.84,2.13,2.13L27.21,16.16c1.28-1.28,3-.43,5.54-1.28C36.59,13.6,40,7.21,40,5.07s-0.85-3-3-3S28.49,5.5,27.21,9.34c-0.85,2.56,0,4.26-1.28,5.54L5.47,34.49h0Z" transform="translate(-0.04 -0.8)"/></g></svg>