<svg id="Calque_1" data-name="Calque 1" xmlns="http://www.w3.org/2000/svg" viewBox="0 0 40 37.2"><defs><style>.cls-1{fill:#f5f5f5;}.cls-2{fill:#f69;}</style></defs><title>sorties</title><rect class="cls-1" width="40" height="37.2"/><path class="cls-2" d="M33.93,6.23H29.37a5.07,5.07,0,0,0-10,.55H12.77l-4.41-6A0.82,0.82,0,0,0,7.75.44L1.3,0A0.82,0.82,0,0,0,.42.8a0.83,0.83,0,0,0,.77.88L7.26,2.07l3.46,4.71H5.78A0.83,0.83,0,0,0,5.07,8L15.78,25.81a0.83,0.83,0,0,0,.72.4l2.87,0V31.3l-6,4.44a0.83,0.83,0,0,0,.49,1.49H26.79a0.83,0.83,0,0,0,.48-1.5L21,31.29V26.15c1.64,0,2.94,0,3.33,0a0.82,0.82,0,0,0,1-.52c0.24-.53,2.51-5,5-9.93l0.06,0A0.82,0.82,0,0,0,30.76,15l3.89-7.6A0.83,0.83,0,0,0,33.93,6.23ZM24.2,35.57H16.38l3.83-2.84ZM24.45,4A3.44,3.44,0,1,1,21,7.47,3.44,3.44,0,0,1,24.45,4ZM11.94,8.43l4.87,6.63a4.1,4.1,0,0,0-2.44-.83,4,4,0,0,0-2.74,1.5l-4.4-7.3h4.7ZM25.29,22.12c-0.56,1.1-.94,1.86-1.19,2.38-1-.07-3.08,0-7.16,0l-4.43-7.35,0.25-.26a2.57,2.57,0,0,1,1.67-1.05A3.3,3.3,0,0,1,16.6,17a5.47,5.47,0,0,0,2.77,1.52l1.94,2.65a0.82,0.82,0,1,0,1.33-1L21.4,18.51a13,13,0,0,0,5-2.67l0.36-.27a1.89,1.89,0,0,1,2.09-.36l-0.32.62Zm4.28-8.39a3.47,3.47,0,0,0-3.83.51l-0.36.27C23.58,15.89,21.9,17,20.27,17L14,8.43h5.48a5.07,5.07,0,0,0,10-.55h3.06Z" transform="translate(0 -0.02)"/></svg>