<svg id="Calque_1" data-name="Calque 1" xmlns="http://www.w3.org/2000/svg" viewBox="0 0 31.26 37.26"><defs><style>.cls-1{fill:#f69;}</style></defs><title>sortie</title><path class="cls-1" d="M34.32,5.76H30.17a4.62,4.62,0,0,0-9.06.5H15.05L11,0.81A0.75,0.75,0,0,0,10.48.5L4.6,0.13a0.75,0.75,0,0,0-.1,1.5L10,2l3.15,4.28H8.68A0.75,0.75,0,0,0,8,7.39l9.75,16.13a0.76,0.76,0,0,0,.65.36l2.61,0V32l-5.45,4a0.75,0.75,0,0,0,.45,1.35H27.81A0.75,0.75,0,0,0,28.25,36l-5.69-4V23.84c1.5,0,2.68,0,3,0a0.75,0.75,0,0,0,.93-0.47c0.22-.48,2.29-4.52,4.59-9l0.06,0a0.75,0.75,0,0,0,.26-0.59L35,6.85A0.75,0.75,0,0,0,34.32,5.76ZM25.46,35.89H18.34l3.48-2.58ZM25.69,3.75a3.13,3.13,0,1,1-3.13,3.13A3.13,3.13,0,0,1,25.69,3.75Zm-11.39,4,4.44,6A3.74,3.74,0,0,0,16.51,13,3.62,3.62,0,0,0,14,14.38L10,7.76H14.3ZM26.45,20.18c-0.51,1-.86,1.68-1.08,2.16-1-.06-2.81,0-6.52,0l-4-6.67L15,15.47a2.34,2.34,0,0,1,1.52-1,3,3,0,0,1,2,1,5,5,0,0,0,2.52,1.38l1.77,2.4A0.75,0.75,0,1,0,24,18.44L22.91,16.9a11.87,11.87,0,0,0,4.53-2.43l0.32-.24a1.73,1.73,0,0,1,1.91-.33l-0.29.56Zm3.9-7.61a3.17,3.17,0,0,0-3.49.46l-0.33.25c-1.64,1.24-3.17,2.26-4.65,2.23L16.16,7.76h5a4.62,4.62,0,0,0,9.15-.5h2.79Z" transform="translate(-3.8 -0.13)"/></svg>