<svg id="Calque_1" data-name="Calque 1" xmlns="http://www.w3.org/2000/svg" viewBox="0 0 40.04 28.7"><defs><style>.cls-1{fill:red;}</style></defs><title>tourisme</title><path class="cls-1" d="M36.38,7.84C37.67,7.56,39,6.63,39.8,7.75c1.78,2.65-8.09,11.6-8.5,11.88L33,30a1.38,1.38,0,0,1-.47,1.5l-1.1.89-3.71-5.5-3.66-.49a50.49,50.49,0,0,1-4.61,3.48c-3.56,2.4-4.63,2.9-4.89,3.08l0.76,2a1.05,1.05,0,0,1-.9,1L11,34.69c-0.36.24-1.34,0.76-1.55,0.45a0.76,0.76,0,0,1-.09-0.9L3,33.24c-0.42-.08.15-1.21,1.24-1.35l5-.76L7,28.35l0.76-.73a2.63,2.63,0,0,1,1.58-.18l4.57,1.06,4-4-3.61-.74L0,24.25,0.4,23a1.65,1.65,0,0,1,.78-0.82L26.3,16.49l5.42-5.36a8.93,8.93,0,0,1,2.15-2.41,4.34,4.34,0,0,1,2.52-.88h0Z" transform="translate(0.02 -7.21)"/></svg>