<svg id="Calque_1" data-name="Calque 1" xmlns="http://www.w3.org/2000/svg" viewBox="0 0 40 37.25"><defs><style>.cls-1{fill:#1b84db;}</style></defs><title>zap</title><g id="layer1"><g id="g3848"><path id="path3812" class="cls-1" d="M5.77,37.9a3.65,3.65,0,1,1,.86-5.09A3.65,3.65,0,0,1,5.77,37.9Z" transform="translate(0 -1.32)"/><path id="path3814" class="cls-1" d="M24.71,20.87c-3.85-5.41-9.32-8.74-14.58-9.43l-2,5.12c4.39,0.11,9.15,2.73,12.41,7.3A16.75,16.75,0,0,1,23.61,37H29A22.34,22.34,0,0,0,24.71,20.87Z" transform="translate(0 -1.32)"/><path id="path3822" class="cls-1" d="M15,27.13a14.84,14.84,0,0,0-8.74-5.87L4.54,25.58A11.33,11.33,0,0,1,11,30a11.33,11.33,0,0,1,2.1,7H17.7A14.84,14.84,0,0,0,15,27.13Z" transform="translate(0 -1.32)"/><path id="path3824" class="cls-1" d="M34,14.15A31.11,31.11,0,0,0,14.14,1.32L12.22,6.17c6.08,0.57,12.65,4.51,17.28,11s6.18,13.9,4.79,19.8h5.35A31.14,31.14,0,0,0,34,14.15Z" transform="translate(0 -1.32)"/></g></g></svg>