<?xml version="1.0" encoding="UTF-8"?>
<!DOCTYPE svg PUBLIC "-//W3C//DTD SVG 1.1//EN" "http://www.w3.org/Graphics/SVG/1.1/DTD/svg11.dtd">
<!-- Creator: CorelDRAW X7 -->
<svg xmlns="http://www.w3.org/2000/svg" xml:space="preserve" width="160.566mm" height="160.371mm" version="1.1" style="shape-rendering:geometricPrecision; text-rendering:geometricPrecision; image-rendering:optimizeQuality; fill-rule:evenodd; clip-rule:evenodd"
viewBox="0 0 16331 16311"
 xmlns:xlink="http://www.w3.org/1999/xlink">
 <defs>
  <style type="text/css">
   <![CDATA[
    .str0 {stroke:#373435;stroke-width:20.3418}
    .fil0 {fill:none}
    .fil1 {fill:black}
    .fil2 {fill:#010103}
   ]]>
  </style>
 </defs>
 <g id="Layer_x0020_1">
  <metadata id="CorelCorpID_0Corel-Layer"/>
  <rect class="fil0" x="10" width="16311" height="16311"/>
 </g>
 <g id="Layer_x0020_1_0">
  <metadata id="CorelCorpID_1Corel-Layer"/>
  <path class="fil1 str0" d="M4713 15460c-2430,-3009 -4840,-6212 -4697,-9866 105,-2681 1768,-4744 4697,-4744 2018,0 3434,980 4155,2466l2960 593c143,27 310,-13 477,8 376,45 506,201 689,290 884,430 2347,1184 3033,1828 91,86 146,120 216,271 316,660 -414,1004 -618,1182l-1072 879c-104,73 -180,133 -294,195 -76,42 -235,128 -290,170 120,148 618,417 944,1030 256,475 264,1098 68,1625 -266,714 -746,1168 -1299,1653 -195,172 -344,266 -694,292 -33,431 243,1294 118,1698 -138,454 -837,566 -1249,256 -420,-319 -360,-817 -441,-1437 -71,-551 -112,-1119 -185,-1669 -152,-1125 -193,-2340 -277,-3490 -28,-402 -182,-3393 -240,-3497 -48,-29 -773,-180 -1368,-293 33,226 55,458 64,694 144,3654 -2266,6857 -4697,9866zm8088 -3805c172,-65 693,-584 699,-967 2,-248 -175,-438 -298,-532 -148,-112 -347,-264 -545,-329l144 1828zm826 -4433c120,-73 269,-196 376,-285 115,-96 245,-195 352,-305 -44,-55 -691,-456 -798,-459l70 1049 0 0zm-8974 -3860c21,0 39,0 60,2 19,-2 39,-2 60,-2 1388,0 2512,1137 2512,2537 0,1401 -1127,2535 -2512,2535 -21,0 -42,0 -60,0 -21,0 -39,0 -60,0 -1387,0 -2511,-1134 -2511,-2535 0,-1400 1124,-2537 2511,-2537z"/>
  <path class="fil2" d="M11781 850c-699,76 -1301,689 -1218,1466 78,730 686,1296 1474,1234 719,-58 1301,-705 1225,-1487 -67,-709 -699,-1296 -1481,-1213l0 0z"/>
 </g>
</svg>
